<?xml version="1.0" standalone="no"?>
<!DOCTYPE svg PUBLIC "-//W3C//DTD SVG 20010904//EN"
 "http://www.w3.org/TR/2001/REC-SVG-20010904/DTD/svg10.dtd">
<svg version="1.0" xmlns="http://www.w3.org/2000/svg"
 width="300.000000pt" height="280.000000pt" viewBox="0 0 300.000000 280.000000"
 preserveAspectRatio="xMidYMid meet">
<g transform="translate(0.000000,280.000000) scale(0.100000,-0.100000)"
fill="#000000" stroke="none">
<path d="M245 2186 c-53 -23 -69 -51 -73 -124 -4 -61 -7 -70 -40 -105 -34 -35
-36 -40 -36 -107 0 -55 4 -75 21 -98 l21 -29 -21 -21 c-42 -42 -29 -170 22
-209 l30 -23 1 -352 c0 -255 4 -358 13 -377 6 -14 27 -36 46 -48 l34 -23 346
2 c312 3 350 5 374 21 46 30 58 59 62 149 2 46 3 87 4 92 1 4 18 5 39 0 20 -4
60 -10 87 -13 49 -6 50 -7 53 -41 1 -19 7 -44 12 -55 4 -11 11 -33 15 -49 15
-69 125 -121 202 -95 20 6 54 8 79 4 41 -6 47 -4 71 23 l26 30 25 -23 c32 -30
99 -48 146 -41 44 7 92 31 99 48 3 10 8 11 23 1 99 -65 200 -66 257 -3 27 30
29 31 42 13 8 -10 15 -22 15 -26 0 -11 65 -37 92 -37 13 0 36 7 53 16 23 12
34 13 51 3 13 -7 39 -9 65 -5 53 7 59 7 127 0 46 -5 57 -3 77 16 30 28 67 29
96 1 43 -40 149 -23 149 24 0 8 -6 34 -14 57 -7 24 -30 96 -51 161 -43 138
-58 157 -126 157 -70 0 -91 -24 -130 -148 -50 -158 -58 -161 -59 -17 -1 143
-8 158 -74 159 -51 1 -86 -24 -86 -60 0 -13 -4 -25 -9 -28 -11 -7 -38 24 -43
49 -9 49 -90 51 -117 3 -9 -17 -24 -41 -34 -53 -16 -22 -20 -23 -50 -11 -85
36 -171 27 -212 -21 -26 -29 -33 -29 -56 1 -23 29 -107 50 -160 41 -19 -3 -51
-20 -72 -36 -25 -21 -38 -26 -41 -17 -15 56 -26 75 -59 101 -34 28 -43 31
-120 31 -59 0 -90 -5 -112 -17 -19 -11 -31 -13 -36 -6 -8 14 -1 77 11 100 15
27 12 149 -5 194 -8 22 -14 72 -15 112 0 86 -12 117 -57 144 -31 20 -33 24
-34 82 -2 139 -10 243 -20 263 -14 28 -54 46 -84 38 -29 -7 -45 18 -45 75 0
52 -39 99 -92 110 -20 5 -180 9 -355 9 -244 1 -325 -2 -348 -12z m746 -45 c27
-27 29 -35 29 -101 l0 -72 26 6 c62 16 80 16 97 4 17 -13 19 -30 17 -195 l-1
-180 29 -6 c54 -11 62 -28 62 -137 0 -78 3 -99 15 -104 12 -4 15 -25 15 -101
0 -78 -3 -95 -15 -95 -12 0 -15 -16 -15 -88 0 -77 -3 -91 -20 -107 -20 -18
-24 -18 -138 4 -64 13 -122 25 -129 28 -9 4 -13 -23 -15 -109 l-3 -113 -335 0
-335 0 0 660 0 660 92 3 91 3 12 -36 c6 -19 17 -35 23 -36 11 0 213 0 229 1 4
0 14 16 23 35 l14 36 93 -3 93 -3 3 -72 c2 -40 1 -73 -1 -73 -3 0 -112 -25
-243 -55 -158 -36 -242 -59 -250 -70 -8 -11 -12 -84 -13 -233 -1 -172 -5 -220
-16 -232 -50 -56 -59 -168 -19 -248 110 -221 439 -140 438 108 0 129 -79 216
-214 234 l-45 6 45 -20 c24 -12 51 -26 59 -33 12 -9 13 -9 7 1 -10 17 5 15 34
-5 71 -49 95 -95 95 -182 0 -81 -17 -125 -60 -151 -18 -11 -35 -20 -38 -20 -3
0 9 24 27 54 51 86 45 183 -18 261 -10 12 -7 -1 8 -35 38 -85 41 -117 15 -185
-29 -79 -85 -135 -136 -135 -85 0 -168 53 -199 127 -33 78 -12 179 51 247 l24
26 -22 0 c-22 0 -22 1 -22 170 0 109 4 169 10 166 6 -2 46 -11 90 -21 l80 -17
145 35 c80 19 172 41 204 48 33 7 54 15 48 17 -7 2 -60 -8 -120 -22 -196 -47
-257 -54 -336 -39 -39 7 -78 20 -86 29 -13 14 -13 17 4 29 10 8 53 22 95 31
42 9 90 20 106 24 17 5 79 20 139 34 60 14 116 32 125 40 13 12 15 29 11 90
-3 41 -11 81 -17 87 -9 9 -42 12 -105 10 -92 -2 -93 -3 -125 -37 -32 -34 -33
-34 -115 -34 -91 0 -95 2 -121 43 -18 28 -18 28 -120 25 -97 -3 -102 -4 -114
-28 -9 -18 -13 -86 -13 -232 0 -115 -3 -208 -6 -208 -4 0 -13 8 -20 18 -11 15
-13 6 -14 -63 0 -55 3 -75 10 -65 5 8 10 34 10 58 0 23 5 42 10 42 7 0 10
-148 10 -425 0 -412 1 -426 20 -445 15 -15 34 -20 78 -20 291 -3 587 0 603 5
22 7 26 22 33 129 4 74 17 103 38 90 4 -3 8 -53 8 -110 0 -103 -1 -106 -29
-135 l-29 -29 -347 0 c-363 0 -393 3 -409 45 -3 9 -6 187 -6 395 l0 379 -32 3
-33 3 -3 79 c-3 84 2 96 46 96 18 0 22 6 22 29 0 26 -4 30 -32 33 l-33 3 0 85
0 85 33 3 32 3 0 90 c0 84 2 91 26 114 l27 25 354 0 355 0 29 -29z m532 -1088
c30 -15 67 -68 67 -95 0 -15 -9 -18 -49 -18 -40 0 -50 4 -54 20 -6 24 -51 36
-83 21 -13 -6 -29 -23 -35 -38 -14 -37 -6 -109 16 -133 31 -35 105 -22 105 18
0 11 -8 13 -35 8 l-35 -7 0 41 0 40 85 0 85 0 0 -103 0 -104 -30 5 c-16 2 -30
10 -30 17 0 9 -10 8 -37 -6 -81 -41 -173 -15 -210 61 -44 85 -22 224 41 266
55 35 138 38 199 7z m817 -28 c0 -43 1 -45 25 -39 24 6 25 4 25 -36 0 -40 -1
-42 -25 -37 l-26 4 3 -71 c3 -66 5 -71 26 -74 19 -3 23 -9 20 -35 -3 -30 -6
-32 -46 -35 -28 -2 -53 3 -68 13 -22 14 -24 21 -24 105 0 83 -1 90 -20 90 -17
0 -20 7 -20 41 0 36 2 41 20 36 16 -4 21 1 26 32 9 49 11 51 50 51 34 0 34 0
34 -45z m200 -137 l0 -183 -50 0 -50 0 0 183 0 182 50 0 50 0 0 -182z m329 15
c29 -93 55 -175 57 -183 4 -12 -5 -14 -51 -12 -49 3 -56 7 -61 28 -6 22 -11
24 -60 24 -48 0 -54 -2 -60 -24 -5 -21 -13 -25 -57 -28 -29 -2 -53 -4 -54 -3
-1 0 24 82 55 182 l57 183 60 0 61 0 53 -167z m-1030 74 c34 -17 58 -55 66
-104 l7 -43 -96 0 c-53 0 -96 -3 -96 -8 0 -4 7 -18 16 -30 19 -28 60 -29 74
-2 8 15 21 20 55 20 25 0 45 -2 45 -5 0 -3 -7 -21 -15 -41 -24 -58 -114 -82
-190 -50 -86 36 -96 199 -16 253 38 26 110 31 150 10z m318 -21 c36 -42 30
-56 -21 -56 -31 0 -46 5 -50 16 -7 19 -51 15 -51 -5 0 -9 20 -19 54 -27 67
-15 95 -42 94 -90 -2 -55 -38 -86 -105 -91 -67 -5 -117 19 -135 65 l-13 32 40
0 c27 0 47 -7 60 -20 22 -22 38 -25 60 -10 13 9 13 12 -3 24 -9 7 -36 16 -58
20 -75 12 -112 79 -73 134 23 33 51 42 118 39 50 -3 63 -8 83 -31z m253 -109
c0 -51 -7 -62 -26 -42 -24 23 -15 85 12 85 10 0 14 -13 14 -43z"/>
<path d="M524 2105 c-10 -25 9 -37 52 -33 31 2 39 7 39 23 0 16 -8 21 -43 23
-32 2 -44 -1 -48 -13z"/>
<path d="M653 2104 c-9 -23 13 -40 32 -24 12 10 13 16 4 26 -15 18 -28 18 -36
-2z"/>
<path d="M200 1852 c0 -53 4 -81 10 -77 13 8 13 125 0 145 -7 10 -10 -11 -10
-68z"/>
<path d="M715 1695 c18 -7 316 -65 328 -64 48 2 -260 70 -312 68 -14 0 -21 -2
-16 -4z"/>
<path d="M1060 1636 c0 -13 67 -33 77 -23 5 5 -54 37 -69 37 -4 0 -8 -6 -8
-14z"/>
<path d="M565 1392 c-25 -5 -75 -40 -95 -66 -45 -60 -46 -145 -2 -208 34 -48
102 -83 140 -72 25 7 25 8 -17 15 -54 10 -86 31 -111 72 -30 49 -35 92 -15
143 22 58 70 94 137 103 49 7 51 7 18 12 -19 2 -44 3 -55 1z"/>
<path d="M1061 1386 c-8 -9 -11 -44 -9 -103 l3 -88 30 -2 c28 -3 28 -2 7 7
-21 9 -23 15 -20 87 l3 78 55 5 55 5 -42 7 c-23 5 -48 10 -56 13 -7 3 -19 -1
-26 -9z"/>
<path d="M1198 1275 c3 -86 2 -95 -15 -96 -16 0 -16 -1 2 -9 11 -5 29 -9 40
-9 19 0 19 0 3 13 -14 11 -18 29 -18 89 0 42 5 79 10 82 16 10 12 25 -7 25
-16 0 -18 -10 -15 -95z"/>
<path d="M569 1259 l-36 -38 41 -43 41 -43 43 44 c38 40 41 46 25 55 -10 5
-29 22 -43 38 -13 15 -27 27 -30 27 -3 -1 -21 -19 -41 -40z m66 -15 c19 -19
16 -43 -6 -57 -32 -20 -64 34 -37 61 16 16 23 15 43 -4z"/>
<path d="M835 1026 c64 -18 103 -20 88 -5 -6 6 -39 12 -74 14 l-64 4 50 -13z"/>
<path d="M475 880 c-15 -24 12 -30 136 -30 122 0 129 1 129 20 0 19 -7 20
-129 20 -76 0 -132 -4 -136 -10z"/>
<path d="M2737 910 c-9 -35 -14 -66 -12 -68 2 -2 16 -2 32 0 l29 3 -16 65 -16
65 -17 -65z"/>
<path d="M1737 914 c-19 -20 -5 -34 34 -34 33 0 40 3 37 18 -3 17 -57 30 -71
16z"/>
</g>
</svg>
